<?xml version="1.0" standalone="no"?>
<!DOCTYPE svg PUBLIC "-//W3C//DTD SVG 20010904//EN"
 "http://www.w3.org/TR/2001/REC-SVG-20010904/DTD/svg10.dtd">
<svg version="1.0" xmlns="http://www.w3.org/2000/svg"
 width="512.000000pt" height="512.000000pt" viewBox="0 0 512.000000 512.000000"
 preserveAspectRatio="xMidYMid meet">
<metadata>
Created by potrace 1.14, written by Peter Selinger 2001-2017
</metadata>
<g transform="translate(0.000000,512.000000) scale(0.100000,-0.100000)"
fill="#000000" stroke="none">
<path d="M981 4694 c-62 -31 -116 -83 -173 -167 -82 -120 -180 -363 -204 -507
-3 -14 -7 -34 -11 -44 -30 -100 -39 -509 -14 -636 6 -30 12 -66 15 -80 11 -66
39 -170 62 -234 14 -39 28 -78 30 -87 3 -8 -8 -49 -24 -90 -59 -147 -128 -402
-146 -539 -3 -25 -8 -55 -10 -67 -9 -44 -22 -210 -25 -311 l-1 -34 -52 8
c-103 16 -147 12 -169 -16 -25 -32 -19 -88 13 -111 12 -9 45 -20 72 -24 91
-11 121 -16 132 -20 6 -2 15 -24 18 -50 4 -26 9 -55 11 -64 4 -21 31 -110 40
-132 5 -14 -8 -18 -87 -28 -145 -18 -185 -30 -202 -57 -29 -43 -19 -87 26
-110 28 -14 64 -14 148 1 8 2 38 6 65 9 28 3 66 9 87 12 35 5 37 4 64 -43 160
-275 477 -533 829 -673 44 -18 89 -36 100 -40 112 -46 425 -120 565 -134 25
-3 81 -8 125 -13 103 -10 475 -10 585 0 125 11 260 30 320 43 14 3 36 8 50 10
14 3 43 10 65 16 22 5 48 12 58 14 65 12 313 106 422 159 293 142 513 326 668
558 72 108 72 108 107 103 19 -3 55 -8 80 -11 25 -3 56 -8 70 -10 14 -2 51 -7
82 -11 53 -5 59 -4 83 22 27 29 32 63 14 95 -12 23 -43 37 -102 45 -23 3 -51
7 -62 8 -11 2 -45 7 -76 11 l-56 7 28 106 c16 59 28 117 29 130 0 29 -3 28
145 48 83 11 113 43 100 105 -13 58 -49 66 -195 43 -40 -7 -40 -7 -41 27 -1
61 -16 249 -25 304 -2 17 -6 46 -9 65 -19 158 -106 471 -161 579 -16 33 -16
35 24 165 74 239 91 355 87 611 -2 161 -6 210 -29 320 -91 439 -297 753 -490
744 -64 -4 -181 -46 -275 -102 -73 -43 -292 -197 -327 -231 -6 -6 -36 -31 -65
-56 -45 -37 -94 -81 -185 -165 -7 -5 -39 -37 -73 -69 l-62 -59 -82 12 c-136
21 -213 26 -407 26 -187 0 -355 -10 -394 -24 -11 -4 -39 -9 -61 -10 -33 -2
-45 3 -66 26 -14 15 -68 66 -119 113 -51 47 -98 90 -104 95 -101 96 -344 277
-461 344 -114 65 -184 91 -260 97 -51 4 -69 0 -114 -22z"/>
</g>
</svg>
